<svg id="Layer_1" data-name="Layer 1" xmlns="http://www.w3.org/2000/svg" viewBox="0 0 471.38 321.16"><defs><style>.cls-1{fill:#3c154e;}.cls-2{fill:#007802;}.cls-3{fill:#362063;}.cls-4{fill:#1925ec;}.cls-5{fill:#2e3192;}.cls-6{fill:#3c184e;}.cls-7{fill:#fff;}</style></defs><path class="cls-1" d="M182,22.33c-2,13-3.61,26-6,38.91-5,26.52-10.57,52.91-15.4,79.45-3.68,20.26-6.56,40.65-9.66,60.14,3.15,1.09,6.22,1.53,8.53,3.09,5.59,3.77,10.59,1.13,15.77-.65,1.35-.46,2.7-.87,4.05-1.31l.77,1.26c-2.15,1.54-4.14,3.4-6.48,4.54-2.57,1.25-2.61,2.42-.79,4.2,2,2,4.18,3.83,6.05,5.93,1.22,1.38,2.67,3,2.89,4.7.26,2,0,5-1.26,6.08-2.12,1.83-4.85.92-6.69-1.47-2.7-3.53-5.51-7-8.09-10.62-2.19-3.07-4.81-4.14-8.42-2.79-1.39.51-3,1.17-4.34,1-4.14-.56-5,2-5.48,5.13q-2.7,17.7-5.33,35.42a20.13,20.13,0,0,0,0,2.43l12.11-6.69a81.84,81.84,0,0,1-6.45-5.77c-.75-.81-1.32-2.63-.91-3.46a4.5,4.5,0,0,1,3.28-1.81,8.15,8.15,0,0,1,3.77,1.12,16.21,16.21,0,0,1,3.38,2.2c3.75,3.1,7.5,5.55,12.7,2.94,1.6-.81,3.72-.78,5.6-.72,1,0,1.94,1,2.91,1.47a9.81,9.81,0,0,1-1.81,2.32c-1.51,1.06-3.2,1.87-5.34,3.08a78,78,0,0,0,6.7,5.83c2.44,1.68,4.63,3.24,3.94,8-6.33-3.32-12.31-6-17.73-9.51a7.93,7.93,0,0,0-7.5-1c-4.76,1.47-9.56,2.8-15.18,4.44-.44,5.33-1,11.61-1.47,17.72.46.36.7.7.87.66,8.09-1.57,16.06-.87,24.19.15,3.46.44,7.32-2.35,11-3.61,1.33-.46,2.72-.76,4.08-1.13l.75,1L176.3,281c1.91.84,3.69,1.62,5.48,2.39s3.55,1.33,5.21,2.22c3.13,1.68,4.56,5.78,2.79,8.23-2.2,3-4.74.8-6.92-.08A110.36,110.36,0,0,1,170.42,288c-2.66-1.47-4.61-.59-6.76.73-3.56,2.19-7.1,4.42-10.76,6.44a19.48,19.48,0,0,1-4.38,1.23c-2.22-6.89,4.09-7.89,7.26-11.35l-15.68-5.83c-1,7.09-1.81,13.76-2.8,20.42-.29,2-.54,4.17-1.62,5.71-.89,1.28-3.33,2.74-4.4,2.33a5.75,5.75,0,0,1-3.07-4.37,183.26,183.26,0,0,1,1.33-21.08c3-22.45,5.76-44.95,9.56-67.27,5.8-34,12-68,18.78-101.92,4.82-24,10.81-47.85,16.52-71.71,1.56-6.53,4-12.85,6-19.27Zm-26.86,185-4.4-4.61c-.36,2.6-.58,4.22-.9,6.58Z" transform="translate(-13.76 -11.37)"/><path class="cls-2" d="M485.05,330.61c-13.12-4.55-25.08-9.7-35.11-18.2a73.72,73.72,0,0,1-12.46-14.19c-4.62-6.65-11.08-9-18.49-9.29-7.73-.33-15.5.2-23.23-.06-14.5-.49-29.06-.59-43.43-2.25a42.59,42.59,0,0,1-18.9-7.69c-6.74-4.8-8.3-12.71-6.88-20.93.78-4.5-.09-5.33-4.69-4.7-15.5,2.11-29.87,7.62-43.82,14.49-11.19,5.51-22.53,10.74-33.7,16.31-3.29,1.64-5.07.58-6.55-2.25-1.57-3,1.2-4.16,2.74-4.92,14.1-7,28.17-14,42.57-20.35a150.13,150.13,0,0,1,37-10.61c7.38-1.17,14.34.08,21.15,2.64,3.85,1.45,5.32,4.82,5.87,8.64a56.61,56.61,0,0,1,.67,6.07c.56,13.21,8.64,18.29,20.95,19,7.44.41,14.93-.51,22.4-.65,9.52-.17,19-.47,28.56-.15,10.71.35,20.86,3.63,30.57,7.87,3.12,1.37,5.65,4.61,7.84,7.46,7,9,14.65,17.11,24.74,22.69a5.17,5.17,0,0,1,2.09,3.41A57.73,57.73,0,0,1,485.05,330.61Z" transform="translate(-13.76 -11.37)"/><path class="cls-2" d="M391.87,303.67c-7.83.39-15.67.68-23.5,1.2-30.35,2-60.74,3.7-91,6.28-22.57,1.93-45.09,4.66-67.53,7.75-23.78,3.27-47.41,7.54-71.15,11.05a243.4,243.4,0,0,1-27.87,2.58c-8.13.25-14.13-4.42-15.89-11.46a22.72,22.72,0,0,1-.06-8,29.78,29.78,0,0,1,1.9-6.63C101.16,294.49,94.11,289,84,288.64c-16.62-.66-32.59,3.2-48.21,8.53-7.14,2.44-14.14,5.3-21.38,8-1.31-2.52-.41-4.34,1.82-5.35,6.64-3,13.15-6.52,20.08-8.61,11.27-3.4,22.7-6.82,34.31-8.36,8.82-1.17,18.16-.27,27,1.21s12.14,7.72,10.21,16.7c-.71,3.31-1.63,6.58-2.53,9.85-2.48,9,1,14.76,10.11,14.46a325.14,325.14,0,0,0,36.44-3.4c21.71-3.21,43.25-7.67,65-10.54,21-2.76,42.13-4.29,63.22-6.12,17.17-1.49,34.36-3.25,51.57-3.73,18.44-.51,36.92.33,55.38.63a39.4,39.4,0,0,1,4.8.62C391.82,302.93,391.85,303.3,391.87,303.67Z" transform="translate(-13.76 -11.37)"/><path class="cls-3" d="M401.67,271.49c-1-1.26-2.19-2.22-2.54-3.43-1.46-5.05-2.89-10.13-3.9-15.28-2.6-13.3-5-26.64-7.41-40-1.44-8.14-2.64-16.33-4-24.65-7.25-.82-12.46-4.89-16.7-10.13-2.36-2.92-5-3.69-8.48-3.5s-6.71,0-10.07,0c-.09-.58-.17-1.17-.26-1.75l9.23-4.19c-1.83-2.08-3.65-3.6-4.71-5.53-.8-1.44-.63-3.42-.89-5.16,1.89.13,4.19-.38,5.6.51a29.45,29.45,0,0,1,6.12,5.9c2.36,2.73,4.89,4.32,8.76,3.86,2.59-.31,5.29.35,7.87.58C376,116.14,369,64.08,367.38,11.61l1.54-.24c.9,4.86,2,9.69,2.65,14.58q4.15,31.26,8.05,62.54c2.1,17,3.65,34,6.07,50.94,3.83,26.85,8.12,53.64,12.35,80.43,1.84,11.66,4.17,23.24,6,34.91C405.09,261.78,404.09,267.57,401.67,271.49Zm-20.91-99.77L373.88,175l8.34,10.17a48.7,48.7,0,0,0-.73-10.68C381.37,173.68,381.09,172.93,380.76,171.72Z" transform="translate(-13.76 -11.37)"/><path class="cls-4" d="M182.92,87.31A46.37,46.37,0,0,1,184,93.12c1.44,22.89,2.72,45.8,4.21,68.69,1.18,18.12,2.12,36.28,4,54.34,2.12,20.19,5.19,40.29,7.87,60.43q.72,5.43,1.63,10.82c.57,3.31-1.49,4.46-4.11,4.78s-4.84,0-5.29-3.42c-1.63-12.34-3.63-24.63-5.08-37-1.51-12.92-2.7-25.89-3.72-38.85-.75-9.48-1.14-19-1.44-28.49-.69-21.73-1.48-43.46-1.7-65.2-.12-10.62.93-21.25,1.46-31.87Z" transform="translate(-13.76 -11.37)"/><path class="cls-4" d="M356.12,45.76c-.48,9-.66,18-1.51,27-2.27,23.89-5.1,47.73-7.19,71.63-1.44,16.48-2.21,33-2.93,49.57-.54,12.33-.51,24.68-.78,37-.09,4.52-2.26,7.7-5.08,7.65s-5.13-3.24-5.08-7.75c.09-8.69.3-17.38.87-26,.87-13.26,1.88-26.51,3.23-39.73q2.34-23.07,5.4-46.06c2.85-21.08,6-42.13,9.15-63.17a105.43,105.43,0,0,1,2.62-10.36Z" transform="translate(-13.76 -11.37)"/><path class="cls-5" d="M336.45,32.82c-8.95,2.81-17.77,6.15-26.87,8.31-14.15,3.37-28.41,6.6-42.79,8.68a143.42,143.42,0,0,1-47.26-1.51c-6.73-1.27-13-5-19.41-7.85a10.21,10.21,0,0,1-3.52-3.23c-2.11-2.74-.55-6.24,3-6.25a12.06,12.06,0,0,1,6.09,1.69c12.58,7.89,26.38,10.58,41,10.45,29.25-.27,57.9-5,86.37-11.13,1-.22,2.1-.26,3.15-.38C336.28,32,336.37,32.42,336.45,32.82Z" transform="translate(-13.76 -11.37)"/><path class="cls-4" d="M298.65,209.36c-6.56,7.84-14.3,13.77-24,16.43-4.12,1.12-8.61,2.39-12.71,1.85-11.14-1.48-15.46-12.3-9.15-23.13a41,41,0,0,1,22.43-18.4c2.07-.73,4.29-1.13,5.08,1.46s-.39,4.46-3.23,5.54c-6.74,2.55-11.34,7.65-14.71,13.81-1.86,3.4-2.12,7.34.53,10.34s6.49,3.2,10.17,1.84c6.33-2.34,12.59-4.88,18.89-7.3C294.14,210.94,296.4,210.17,298.65,209.36Z" transform="translate(-13.76 -11.37)"/><path class="cls-6" d="M360.05,223.73,347.18,216l.18-1.21c3,0,6.09-.08,9.13,0a6.66,6.66,0,0,1,3.08.89c7.11,4.33,12.21,1.07,17.22-4,1.85-1.89,4.74-2.77,7.15-4.12l1.29,1.76-11.74,10.85c2.74,1.8,5.28,3.26,7.57,5s4.42,3.87,6.57,5.87c2.33,2.18,2.35,4.4,0,6.65s-4.73,1.51-6.92-.2c-3.84-3-7.66-6-11.34-9.19-2.11-1.83-3.45-1.53-5.44.37a80.49,80.49,0,0,1-11,8.93c-1.44.95-3.89.36-5.88.46.83-1.94,1.2-4.34,2.59-5.72,2.47-2.45,5.57-4.26,8.37-6.39A20.66,20.66,0,0,0,360.05,223.73Z" transform="translate(-13.76 -11.37)"/><path class="cls-4" d="M255.3,258.66a13.07,13.07,0,0,1-1.54-2.52c-1.22-4.73,3.93-18.33,8.07-20.76,1.15-.67,3.45-1,4.16-.39a4.83,4.83,0,0,1,1.05,4.33,143.38,143.38,0,0,1-7,14.6C259.12,255.68,257.14,256.89,255.3,258.66Z" transform="translate(-13.76 -11.37)"/><path class="cls-4" d="M282.83,242.62c-3.57-.9-6.86-1.3-9.73-2.61-1.49-.68-2.69-2.85-3.12-4.57-.16-.61,2.31-2.69,3.6-2.71a46.93,46.93,0,0,1,8.9,1.28,67.83,67.83,0,0,1,6.9,1.64c1,.3,2.5,1,2.6,1.69a3.38,3.38,0,0,1-1.43,2.91A69.44,69.44,0,0,1,282.83,242.62Z" transform="translate(-13.76 -11.37)"/><path class="cls-6" d="M178,160.6c-1.9,3.41-3.81,6.23.1,9.13.47.35.38,2.61-.08,2.88a9.12,9.12,0,0,1-4.47,1.24c-4.19-.11-8.38-.56-12.62-.88-.38-1.68-1-4.27-1.7-7.44A22.39,22.39,0,0,0,178,160.6Z" transform="translate(-13.76 -11.37)"/><path class="cls-4" d="M45.07,81.31c-.64-7.2,0-14.84-2.27-21.49C40.6,53.36,35.44,47.91,31,41.08c2.35.8,4.9.85,5.86,2.11,8.14,10.64,13.8,22.09,10,36.08a14.52,14.52,0,0,1-1.1,2.33Z" transform="translate(-13.76 -11.37)"/><path class="cls-4" d="M287.36,191.72c2.93,3.5,1.19,5.8-.16,7.77a66.39,66.39,0,0,1-7.09,8.76c-.75.77-2.77.74-4,.4-.62-.17-1.36-2-1.11-2.85a13,13,0,0,1,2.65-5.23C280.57,197.52,283.89,194.83,287.36,191.72Z" transform="translate(-13.76 -11.37)"/><path class="cls-6" d="M368.84,93.66l-3.59,5.57c1.2.43,2.5.59,3.34,1.29s2.2,2.47,1.92,3c-.61,1.06-2.1,1.62-3.27,2.34a1,1,0,0,1-.79,0c-4.36-1.9-7.78-.47-10.76,3.72l-2.07-8c2.91-.85,6-1.13,8.39-2.64s3.71-4.17,5.52-6.34Z" transform="translate(-13.76 -11.37)"/><path class="cls-4" d="M72.67,64.77c-.22-3.4.23-7-.86-10.11s-3.69-5.4-5.64-8.06l.54-1.26c1.45.23,3.16,0,4.31.77C75.44,48.88,77,60.48,72.67,64.77Z" transform="translate(-13.76 -11.37)"/><path class="cls-4" d="M299,190.55c-3.19.15-5.33-1.05-5.16-3.71.21-3.31,3.44-3.55,5.87-3.53,1.31,0,3.82,2.06,3.7,2.37C302.48,187.89,302.7,191.66,299,190.55Z" transform="translate(-13.76 -11.37)"/><path class="cls-4" d="M101.15,56.82l-5.64-10.7c2.72-1.51,4.81-.74,6.34,1.82C103.86,51.32,103.43,55.14,101.15,56.82Z" transform="translate(-13.76 -11.37)"/><path class="cls-7" d="M155.17,207.3l-5.3,2c.32-2.36.54-4,.9-6.58Z" transform="translate(-13.76 -11.37)"/><path class="cls-7" d="M380.76,171.72c.33,1.21.61,2,.73,2.74a48.7,48.7,0,0,1,.73,10.68L373.88,175Z" transform="translate(-13.76 -11.37)"/></svg>